<?xml version="1.0" standalone="no"?>

<!DOCTYPE svg PUBLIC "-//W3C//DTD SVG 20010904//EN"

 "http://www.w3.org/TR/2001/REC-SVG-20010904/DTD/svg10.dtd">

<svg version="1.0" xmlns="http://www.w3.org/2000/svg"

 width="2000.000000pt" height="2000.000000pt" viewBox="0 0 2000.000000 2000.000000"

 preserveAspectRatio="xMidYMid meet">

<path fill="#000000" stroke="none" d="
M217 1595

L217 1406

L406 1406

L595 1407

L595 1595

L595 1784

L406 1784

L217 1784

L217 1595

Z

M541 1596

L541 1460

L406 1460

L270 1460

L270 1595

C270 1669 270 1730 271 1730

C271 1731 332 1731 406 1731

L541 1731

L541 1596

Z

M703 1758

L703 1731

L730 1731

L757 1731

L757 1758

L757 1784

L730 1784

L703 1784

L703 1758

Z

M812 1757

L812 1730

L785 1730

L757 1730

L757 1622

L757 1514

L838 1514

L919 1514

L919 1487

L919 1460

L946 1460

L973 1460

L973 1514

L973 1568

L946 1568

L919 1568

L919 1622

L919 1676

L946 1676

L973 1676

L973 1703

L973 1730

L946 1730

L919 1730

L919 1703

L919 1676

L892 1676

L866 1676

L865 1622

L865 1568

L838 1568

L811 1568

L811 1622

L811 1676

L838 1676

L865 1676

L865 1730

L865 1784

L839 1784

L812 1784

L812 1757

Z

M1082 1730

L1082 1676

L1055 1676

L1028 1676

L1028 1649

L1028 1622

L1109 1622

L1189 1622

L1189 1649

L1189 1676

L1162 1676

L1136 1676

L1136 1703

L1136 1731

L1190 1731

L1244 1731

L1244 1758

L1244 1784

L1163 1784

L1082 1784

L1082 1730

Z

M1298 1757

L1298 1730

L1271 1730

L1244 1730

L1244 1703

L1244 1676

L1271 1676

L1298 1676

L1298 1649

L1298 1622

L1352 1622

L1406 1622

L1406 1649

L1406 1676

L1433 1676

L1460 1676

L1460 1622

L1460 1568

L1352 1568

L1244 1568

L1244 1487

L1245 1407

L1271 1406

L1298 1406

L1298 1352

L1298 1298

L1325 1298

L1352 1298

L1352 1271

L1352 1244

L1406 1244

L1460 1244

L1460 1217

L1460 1189

L1433 1189

L1406 1189

L1406 1136

L1407 1083

L1433 1082

L1460 1082

L1460 1109

L1460 1136

L1515 1136

L1569 1136

L1569 1109

L1569 1082

L1542 1082

L1514 1082

L1514 1055

L1514 1028

L1541 1028

L1569 1028

L1569 1001

L1569 974

L1596 974

L1622 974

L1622 1001

L1622 1028

L1676 1028

L1731 1028

L1731 973

L1731 919

L1758 919

L1784 919

L1784 1028

L1784 1136

L1758 1136

L1731 1136

L1731 1109

L1731 1082

L1677 1082

L1622 1082

L1622 1109

L1622 1136

L1649 1136

L1676 1136

L1676 1162

L1676 1189

L1595 1189

L1514 1190

L1513 1217

L1513 1244

L1486 1244

L1460 1244

L1460 1271

L1460 1298

L1487 1298

L1514 1298

L1514 1271

L1514 1244

L1541 1244

L1568 1244

L1568 1298

L1568 1352

L1595 1352

L1622 1352

L1622 1298

L1622 1244

L1649 1244

L1676 1245

L1676 1271

L1676 1298

L1704 1298

L1731 1298

L1731 1244

L1731 1190

L1758 1190

L1784 1190

L1784 1271

L1784 1351

L1730 1351

L1676 1351

L1676 1406

L1676 1460

L1649 1460

L1622 1460

L1622 1486

L1622 1513

L1595 1513

L1569 1514

L1568 1541

L1568 1568

L1541 1568

L1514 1569

L1513 1595

L1513 1622

L1540 1622

L1568 1622

L1568 1649

L1568 1676

L1622 1676

L1676 1676

L1676 1649

L1676 1622

L1623 1622

L1569 1622

L1569 1596

L1569 1569

L1650 1569

L1730 1569

L1730 1596

L1730 1622

L1757 1622

L1784 1622

L1784 1676

L1784 1730

L1758 1730

L1731 1730

L1731 1703

L1731 1676

L1704 1676

L1676 1676

L1676 1703

L1676 1730

L1649 1730

L1622 1730

L1622 1757

L1622 1784

L1541 1784

L1460 1784

L1460 1758

L1460 1731

L1487 1731

L1514 1731

L1514 1704

L1514 1676

L1487 1676

L1460 1676

L1460 1703

L1460 1730

L1433 1730

L1406 1730

L1406 1703

L1406 1676

L1379 1676

L1351 1676

L1351 1730

L1351 1784

L1325 1784

L1298 1784

L1298 1757

Z

M1514 1432

L1514 1351

L1433 1351

L1352 1352

L1351 1433

L1351 1514

L1432 1514

L1514 1514

L1514 1432

Z

M1622 1433

L1622 1406

L1595 1406

L1568 1406

L1568 1433

L1568 1460

L1595 1460

L1622 1460

L1622 1433

Z

M650 1568

L650 1514

L677 1514

L703 1514

L703 1568

L703 1622

L677 1622

L650 1622

L650 1568

Z

M974 1596

L974 1569

L1001 1569

L1027 1569

L1027 1596

L1027 1622

L1001 1622

L974 1622

L974 1596

Z

M1028 1514

L1028 1460

L1055 1460

L1082 1460

L1082 1433

L1082 1406

L1055 1406

L1028 1406

L1028 1379

L1028 1352

L1001 1351

L974 1351

L974 1324

L974 1298

L1001 1298

L1028 1298

L1028 1271

L1028 1244

L1055 1244

L1082 1244

L1082 1217

L1082 1190

L1109 1190

L1136 1190

L1136 1217

L1136 1244

L1163 1244

L1189 1244

L1189 1271

L1189 1298

L1163 1298

L1136 1298

L1136 1325

L1136 1352

L1190 1352

L1244 1352

L1244 1379

L1244 1406

L1217 1406

L1189 1406

L1189 1460

L1189 1513

L1136 1513

L1082 1513

L1082 1541

L1082 1568

L1055 1568

L1028 1568

L1028 1514

Z

M1136 1271

L1136 1244

L1109 1244

L1082 1244

L1082 1271

L1082 1298

L1109 1298

L1136 1298

L1136 1271

Z

M650 1352

L650 1244

L703 1244

L757 1245

L757 1271

L757 1298

L730 1298

L703 1298

L703 1325

L703 1352

L730 1352

L757 1352

L757 1406

L757 1460

L704 1460

L650 1460

L650 1352

Z

M974 1433

L974 1406

L1001 1406

L1027 1406

L1027 1433

L1027 1460

L1001 1460

L974 1460

L974 1433

Z

M812 1379

L812 1352

L866 1352

L919 1352

L919 1379

L919 1406

L866 1406

L812 1406

L812 1379

Z

M217 1217

L217 1082

L244 1082

L270 1082

L270 1109

L270 1136

L298 1136

L325 1136

L325 1109

L325 1082

L298 1082

L271 1082

L271 1055

L271 1028

L298 1028

L325 1028

L325 1055

L325 1082

L379 1082

L432 1082

L432 1109

L432 1136

L460 1136

L488 1136

L488 1109

L488 1082

L541 1082

L595 1083

L595 1109

L595 1136

L568 1136

L541 1136

L541 1163

L541 1190

L595 1190

L649 1190

L649 1217

L649 1244

L595 1244

L541 1244

L541 1271

L541 1298

L568 1298

L595 1298

L595 1325

L595 1351

L541 1351

L488 1351

L488 1325

L488 1298

L461 1298

L433 1298

L433 1244

L433 1189

L406 1189

L379 1189

L379 1244

L379 1298

L406 1298

L432 1298

L432 1325

L432 1351

L406 1351

L379 1351

L379 1325

L379 1298

L352 1298

L325 1298

L325 1325

L325 1351

L271 1351

L217 1351

L217 1217

Z

M812 1271

L812 1244

L866 1244

L919 1244

L919 1217

L919 1190

L946 1190

L973 1190

L973 1244

L973 1298

L893 1298

L812 1298

L812 1271

Z

M1190 1217

L1190 1190

L1217 1190

L1244 1190

L1244 1217

L1244 1244

L1217 1244

L1190 1244

L1190 1217

Z

M1298 1190

L1298 1136

L1244 1136

L1189 1136

L1189 1163

L1189 1189

L1163 1189

L1136 1189

L1136 1163

L1136 1136

L1109 1136

L1083 1136

L1082 1109

L1082 1082

L1054 1082

L1027 1082

L1027 1109

L1027 1136

L1001 1136

L974 1136

L974 1082

L974 1028

L1001 1028

L1028 1028

L1028 973

L1028 919

L1001 919

L974 919

L974 892

L974 865

L1082 865

L1190 865

L1190 839

L1190 812

L1217 812

L1244 812

L1244 839

L1244 865

L1352 865

L1460 865

L1460 839

L1460 812

L1487 812

L1514 812

L1514 758

L1514 703

L1542 703

L1569 703

L1569 677

L1569 650

L1623 650

L1676 650

L1676 677

L1676 703

L1703 703

L1730 703

L1730 730

L1730 757

L1703 757

L1676 757

L1676 784

L1676 811

L1622 811

L1568 811

L1568 838

L1568 865

L1514 865

L1460 865

L1460 919

L1460 973

L1433 973

L1406 973

L1406 946

L1406 919

L1244 919

L1082 919

L1082 974

L1082 1028

L1163 1028

L1244 1028

L1244 1001

L1244 974

L1271 974

L1298 974

L1298 1028

L1298 1082

L1325 1082

L1351 1082

L1351 1163

L1351 1244

L1325 1244

L1298 1244

L1298 1190

Z

M812 1163

L812 1136

L839 1136

L865 1136

L865 1163

L865 1189

L839 1189

L812 1189

L812 1163

Z

M1028 1163

L1028 1136

L1055 1136

L1082 1136

L1082 1163

L1082 1189

L1055 1189

L1028 1189

L1028 1163

Z

M650 1109

L650 1082

L677 1082

L703 1082

L703 1055

L703 1027

L622 1027

L541 1027

L541 1001

L541 974

L596 974

L650 974

L650 947

L650 919

L677 919

L703 919

L703 865

L703 811

L676 811

L649 811

L649 838

L649 865

L622 865

L595 865

L595 838

L595 811

L568 811

L541 811

L541 784

L541 757

L433 757

L326 757

L326 730

L326 704

L352 703

L379 703

L379 676

L379 650

L433 650

L487 650

L487 677

L487 703

L514 703

L541 703

L541 677

L541 650

L595 650

L649 650

L649 677

L649 703

L595 703

L541 703

L541 730

L541 757

L596 757

L650 757

L650 730

L650 703

L677 703

L703 703

L703 649

L703 595

L677 595

L650 595

L650 568

L650 541

L677 541

L703 541

L703 568

L703 595

L730 595

L757 595

L757 542

L757 488

L784 488

L811 488

L811 569

L811 649

L784 649

L757 649

L757 676

L757 703

L730 703

L703 703

L703 730

L703 757

L730 757

L757 757

L757 838

L757 919

L730 919

L703 919

L703 947

L703 974

L757 974

L811 974

L811 1055

L811 1136

L784 1136

L757 1136

L757 1109

L757 1082

L730 1082

L703 1082

L703 1109

L703 1136

L677 1136

L650 1136

L650 1109

Z

M866 1135

C865 1135 865 1086 865 1027

L865 919

L839 919

L812 919

L812 866

L812 812

L866 812

L919 812

L919 758

L919 703

L892 703

L865 703

L865 730

L865 757

L839 757

L812 757

L812 704

L812 650

L839 650

L865 650

L865 569

L865 488

L892 488

L919 488

L919 460

L919 432

L866 432

L812 432

L812 406

L812 379

L785 379

L757 379

L757 433

L757 487

L730 487

L703 487

L703 460

L703 432

L677 432

L650 432

L650 379

L650 325

L677 325

L703 325

L703 352

L703 379

L730 379

L757 379

L757 325

L757 271

L784 271

L811 271

L811 298

L811 325

L838 325

L865 325

L865 352

L865 379

L946 379

L1027 379

L1027 487

L1027 595

L1055 595

L1082 595

L1082 623

L1082 650

L1109 650

L1136 650

L1136 677

L1136 703

L1082 703

L1028 703

L1028 676

L1028 650

L1001 649

L974 649

L974 595

L974 541

L947 541

L919 541

L919 622

L919 703

L973 703

L1027 703

L1027 757

L1027 811

L1000 811

L974 812

L973 838

L973 865

L946 865

L919 865

L919 892

L919 919

L946 919

L973 919

L973 973

L973 1027

L946 1027

L919 1027

L919 1081

L919 1136

L892 1136

C878 1136 866 1136 866 1135

Z

M217 1001

L217 974

L244 974

L270 974

L270 1001

L270 1027

L244 1027

L217 1027

L217 1001

Z

M1460 1001

L1460 974

L1487 974

L1513 974

L1513 1001

L1513 1027

L1487 1027

L1460 1027

L1460 1001

Z

M325 919

L326 866

L379 865

L432 865

L432 892

L432 919

L406 919

L379 919

L379 946

L379 973

L352 973

L325 973

L325 919

Z

M488 946

L488 919

L515 919

L541 919

L541 892

L541 865

L568 865

L595 866

L595 892

L595 919

L568 919

L541 919

L541 946

L541 973

L515 973

L488 973

L488 946

Z

M1514 946

L1514 919

L1541 919

L1568 919

L1568 946

L1568 973

L1541 973

L1514 973

L1514 946

Z

M1622 946

L1622 919

L1596 919

L1569 919

L1569 892

L1569 865

L1596 865

L1622 865

L1622 892

L1622 919

L1649 919

L1676 919

L1676 892

L1676 865

L1703 865

L1730 865

L1730 892

L1730 919

L1703 919

L1676 919

L1676 946

L1676 973

L1649 973

L1622 973

L1622 946

Z

M217 839

L217 812

L271 812

L325 812

L325 839

L325 865

L271 865

L217 865

L217 839

Z

M433 839

L433 812

L460 812

L487 812

L487 839

L487 865

L460 865

L433 865

L433 839

Z

M1731 839

L1731 812

L1758 812

L1784 812

L1784 839

L1784 865

L1758 865

L1731 865

L1731 839

Z

M1082 784

L1082 757

L1109 757

L1136 757

L1136 784

L1136 811

L1109 811

L1082 811

L1082 784

Z

M1352 784

L1352 757

L1379 757

L1406 757

L1406 730

L1407 704

L1433 703

L1460 703

L1460 757

L1460 811

L1406 811

L1352 811

L1352 784

Z

M1298 649

L1298 541

L1325 541

L1351 541

L1351 649

L1351 757

L1325 757

L1298 757

L1298 649

Z

M1190 677

L1190 650

L1217 650

L1244 650

L1244 677

L1244 703

L1217 703

L1190 703

L1190 677

Z

M217 406

L217 217

L406 217

L595 217

L595 406

L595 595

L406 595

L217 595

L217 406

Z

M541 405

L541 270

L406 270

L271 271

L270 406

L270 541

L405 541

L541 541

L541 405

Z

M1083 594

C1082 594 1082 582 1082 567

L1082 541

L1109 541

L1136 542

L1136 568

L1136 595

L1109 595

C1095 595 1083 595 1083 594

Z

M1190 568

L1190 541

L1163 541

L1136 541

L1136 460

L1136 379

L1217 379

L1298 379

L1298 325

L1298 271

L1325 271

L1351 271

L1351 352

L1351 432

L1325 432

L1298 432

L1298 460

L1298 487

L1271 487

L1244 487

L1244 541

L1244 595

L1217 595

L1190 595

L1190 568

Z

M1407 594

C1406 594 1406 509 1406 405

L1406 217

L1595 217

L1784 217

L1784 406

L1784 595

L1596 595

C1492 595 1407 595 1407 594

Z

M1731 406

L1731 271

L1595 270

L1460 270

L1460 405

L1460 541

L1596 541

L1731 541

L1731 406

Z

M1028 352

L1028 325

L1055 325

L1082 325

L1082 298

L1082 271

L1109 271

L1136 271

L1136 325

L1136 379

L1082 379

L1028 379

L1028 352

Z

M919 298

L919 271

L947 271

L974 271

L974 244

L974 217

L1028 217

L1082 217

L1082 244

L1082 270

L1055 270

L1027 270

L1027 298

L1027 325

L973 325

L919 325

L919 298

Z

M1190 298

L1190 271

L1163 270

L1136 270

L1136 243

L1136 217

L1217 217

L1298 217

L1298 244

L1298 270

L1271 270

L1244 270

L1244 298

L1244 325

L1217 325

L1190 325

L1190 298

Z

M865 244

L865 217

L892 217

L919 217

L919 244

L919 270

L892 270

L865 270

L865 244

Z

M326 1675

C325 1675 325 1639 325 1594

L325 1514

L406 1514

L487 1514

L487 1595

L487 1676

L407 1676

C362 1676 326 1676 326 1675

Z

M1406 1459

C1406 1458 1406 1446 1406 1432

L1407 1407

L1433 1407

L1460 1407

L1460 1433

L1460 1460

L1433 1460

L1407 1460

L1406 1459

Z

M325 406

L326 326

L406 325

L487 325

L487 406

L487 487

L406 487

L325 487

L325 406

Z

M1514 406

L1514 325

L1595 325

L1676 326

L1676 406

L1676 487

L1595 487

L1514 487

L1514 406

Z

"/>

<path fill="#ffffff" stroke="none" d="
"/>

</svg>

