<?xml version="1.0" encoding="UTF-8" standalone="no"?>
<!DOCTYPE svg PUBLIC "-//W3C//DTD SVG 1.1//EN" "http://www.w3.org/Graphics/SVG/1.1/DTD/svg11.dtd">
<svg width="100%" height="100%" viewBox="0 0 6000 3600" version="1.1" xmlns="http://www.w3.org/2000/svg" xmlns:xlink="http://www.w3.org/1999/xlink" xml:space="preserve" xmlns:serif="http://www.serif.com/" style="fill-rule:evenodd;clip-rule:evenodd;stroke-linecap:round;stroke-linejoin:round;stroke-miterlimit:1.5;">
    <g transform="matrix(6.12323e-17,-1,1,6.12323e-17,-8.52651e-14,2775.59)">
        <g transform="matrix(6.12323e-17,1,-1,6.12323e-17,2775.59,-1.13112e-13)">
            <path d="M118.11,1322.84L118.11,118.11L271.654,118.11L271.654,2657.48L118.11,2657.48L118.11,1452.76C134.407,1452.76 147.638,1423.65 147.638,1387.8C147.638,1351.94 134.407,1322.84 118.11,1322.84Z" style="fill:none;stroke:rgb(0,0,255);stroke-width:0.83px;"/>
        </g>
        <g transform="matrix(1.025,0,0,1.025,-0.590551,-192.52)">
            <circle cx="259.843" cy="377.953" r="23.622" style="fill:none;stroke:rgb(255,0,0);stroke-width:0.81px;"/>
        </g>
        <g transform="matrix(1.025,0,0,1.025,2243.5,-192.52)">
            <circle cx="259.843" cy="377.953" r="23.622" style="fill:none;stroke:rgb(255,0,0);stroke-width:0.81px;"/>
        </g>
    </g>
    <g transform="matrix(6.12323e-17,-1,1,6.12323e-17,153.543,2775.59)">
        <g transform="matrix(6.12323e-17,1,-1,6.12323e-17,2775.59,-1.13112e-13)">
            <path d="M118.11,118.11L271.654,118.11L271.654,2657.48L118.11,2657.48" style="fill:none;stroke:rgb(0,0,255);stroke-width:0.83px;"/>
        </g>
        <g transform="matrix(1.025,0,0,1.025,-0.590551,-192.52)">
            <circle cx="259.843" cy="377.953" r="23.622" style="fill:none;stroke:rgb(255,0,0);stroke-width:0.81px;"/>
        </g>
        <g transform="matrix(1.025,0,0,1.025,2243.5,-192.52)">
            <circle cx="259.843" cy="377.953" r="23.622" style="fill:none;stroke:rgb(255,0,0);stroke-width:0.81px;"/>
        </g>
    </g>
    <g transform="matrix(6.12323e-17,-1,1,6.12323e-17,307.087,2775.59)">
        <g transform="matrix(6.12323e-17,1,-1,6.12323e-17,2775.59,-1.13112e-13)">
            <path d="M118.11,118.11L271.654,118.11L271.654,2657.48L118.11,2657.48" style="fill:none;stroke:rgb(0,0,255);stroke-width:0.83px;"/>
        </g>
        <g transform="matrix(1.025,0,0,1.025,-0.590551,-192.52)">
            <circle cx="259.843" cy="377.953" r="23.622" style="fill:none;stroke:rgb(255,0,0);stroke-width:0.81px;"/>
        </g>
        <g transform="matrix(1.025,0,0,1.025,2243.5,-192.52)">
            <circle cx="259.843" cy="377.953" r="23.622" style="fill:none;stroke:rgb(255,0,0);stroke-width:0.81px;"/>
        </g>
    </g>
    <g transform="matrix(6.12323e-17,-1,1,6.12323e-17,460.63,2775.59)">
        <g transform="matrix(6.12323e-17,1,-1,6.12323e-17,2775.59,-1.13112e-13)">
            <path d="M118.11,118.11L271.654,118.11L271.654,2657.48L118.11,2657.48" style="fill:none;stroke:rgb(0,0,255);stroke-width:0.83px;"/>
        </g>
        <g transform="matrix(1.025,0,0,1.025,-0.590551,-192.52)">
            <circle cx="259.843" cy="377.953" r="23.622" style="fill:none;stroke:rgb(255,0,0);stroke-width:0.81px;"/>
        </g>
        <g transform="matrix(1.025,0,0,1.025,2243.5,-192.52)">
            <circle cx="259.843" cy="377.953" r="23.622" style="fill:none;stroke:rgb(255,0,0);stroke-width:0.81px;"/>
        </g>
    </g>
    <g transform="matrix(0.388889,0,0,0.295455,231.627,1098.16)">
        <path d="M1287.4,850.394L1181.1,850.394L1181.1,1110.24L1287.4,1110.24" style="fill:none;stroke:rgb(0,0,255);stroke-width:2.41px;"/>
    </g>
</svg>
