<?xml version="1.0" encoding="UTF-8" standalone="no"?>
<!DOCTYPE svg PUBLIC "-//W3C//DTD SVG 1.1//EN" "http://www.w3.org/Graphics/SVG/1.1/DTD/svg11.dtd">
<svg width="100%" height="100%" viewBox="0 0 6000 3600" version="1.1" xmlns="http://www.w3.org/2000/svg" xmlns:xlink="http://www.w3.org/1999/xlink" xml:space="preserve" xmlns:serif="http://www.serif.com/" style="fill-rule:evenodd;clip-rule:evenodd;stroke-linecap:round;stroke-linejoin:round;stroke-miterlimit:1.5;">
    <g>
        <g>
            <g transform="matrix(1.55556,0,0,1.55556,-139.108,-139.108)">
                <path d="M165.354,522.216L165.354,218.504C165.354,189.17 189.17,165.354 218.504,165.354L522.216,165.354" style="fill:none;stroke:rgb(0,0,255);stroke-width:0.54px;"/>
            </g>
            <g transform="matrix(0.7,0,0,0.7,-18.3071,-125.787)">
                <circle cx="312.992" cy="466.535" r="29.528" style="fill:none;stroke:rgb(255,0,0);stroke-width:1.19px;"/>
            </g>
        </g>
        <g transform="matrix(-1,0,0,1,3188.98,0)">
            <g transform="matrix(1.55556,0,0,1.55556,-139.108,-139.108)">
                <path d="M165.354,522.216L165.354,218.504C165.354,189.17 189.17,165.354 218.504,165.354L522.216,165.354" style="fill:none;stroke:rgb(0,0,255);stroke-width:0.54px;"/>
            </g>
            <g transform="matrix(0.7,0,0,0.7,-18.3071,-125.787)">
                <circle cx="312.992" cy="466.535" r="29.528" style="fill:none;stroke:rgb(255,0,0);stroke-width:1.19px;"/>
            </g>
        </g>
        <g transform="matrix(1,0,0,-1,0,3188.98)">
            <g transform="matrix(1.55556,0,0,1.55556,-139.108,-139.108)">
                <path d="M165.354,522.216L165.354,218.504C165.354,189.17 189.17,165.354 218.504,165.354L522.216,165.354" style="fill:none;stroke:rgb(0,0,255);stroke-width:0.54px;"/>
            </g>
            <g transform="matrix(0.7,0,0,0.7,-18.3071,-125.787)">
                <circle cx="312.992" cy="466.535" r="29.528" style="fill:none;stroke:rgb(255,0,0);stroke-width:1.19px;"/>
            </g>
        </g>
        <g transform="matrix(-1,0,0,-1,3188.98,3188.98)">
            <g transform="matrix(1.55556,0,0,1.55556,-139.108,-139.108)">
                <path d="M165.354,522.216L165.354,218.504C165.354,189.17 189.17,165.354 218.504,165.354L522.216,165.354" style="fill:none;stroke:rgb(0,0,255);stroke-width:0.54px;"/>
            </g>
            <g transform="matrix(0.7,0,0,0.7,-18.3071,-125.787)">
                <circle cx="312.992" cy="466.535" r="29.528" style="fill:none;stroke:rgb(255,0,0);stroke-width:1.19px;"/>
            </g>
        </g>
        <g transform="matrix(1.04667,0,0,1,-80.8661,-141.732)">
            <path d="M720.472,259.843L2492.13,259.843" style="fill:none;stroke:rgb(0,0,255);stroke-width:0.81px;"/>
        </g>
        <g transform="matrix(1.04667,0,0,1,-80.8661,2811.02)">
            <path d="M720.472,259.843L2492.13,259.843" style="fill:none;stroke:rgb(0,0,255);stroke-width:0.81px;"/>
        </g>
        <g transform="matrix(6.40898e-17,-1.04667,1,6.12323e-17,-141.732,3281.65)">
            <path d="M720.472,259.843L2492.13,259.843" style="fill:none;stroke:rgb(0,0,255);stroke-width:0.81px;"/>
        </g>
        <g transform="matrix(6.40898e-17,-1.04667,1,6.12323e-17,2811.02,3281.65)">
            <path d="M720.472,259.843L2492.13,259.843" style="fill:none;stroke:rgb(0,0,255);stroke-width:0.81px;"/>
        </g>
    </g>
    <g transform="matrix(1.65822,0,0,1.65822,-64.5574,-64.5574)">
        <path d="M217,1784L217,1406L406,1406L595,1407L595,1784L217,1784ZM541,1731L541,1460L270,1460L270,1595C270,1669 270,1730 271,1730C271,1731 332,1731 406,1731L541,1731ZM703,1784L703,1731L757,1731L757,1784L703,1784ZM812,1784L812,1730L757,1730L757,1514L919,1514L919,1460L973,1460L973,1568L919,1568L919,1676L973,1676L973,1730L919,1730L919,1676L866,1676L865,1622L865,1568L811,1568L811,1676L865,1676L865,1784L812,1784ZM1082,1784L1082,1676L1028,1676L1028,1622L1189,1622L1189,1676L1136,1676L1136,1731L1244,1731L1244,1784L1082,1784ZM1298,1784L1298,1730L1244,1730L1244,1676L1298,1676L1298,1622L1406,1622L1406,1676L1460,1676L1460,1568L1244,1568L1244,1487L1245,1407L1271,1406L1298,1406L1298,1298L1352,1298L1352,1244L1460,1244L1460,1189L1406,1189L1406,1136L1407,1083L1433,1082L1460,1082L1460,1136L1569,1136L1569,1082L1514,1082L1514,1028L1569,1028L1569,974L1622,974L1622,1028L1731,1028L1731,919L1784,919L1784,1136L1731,1136L1731,1082L1622,1082L1622,1136L1676,1136L1676,1189L1595,1189L1514,1190L1513,1217L1513,1244L1460,1244L1460,1298L1514,1298L1514,1244L1568,1244L1568,1352L1622,1352L1622,1244L1649,1244L1676,1245L1676,1298L1731,1298L1731,1190L1784,1190L1784,1351L1676,1351L1676,1460L1622,1460L1622,1513L1595,1513L1569,1514L1568,1541L1568,1568L1541,1568L1514,1569L1513,1595L1513,1622L1568,1622L1568,1676L1676,1676L1676,1622L1569,1622L1569,1569L1730,1569L1730,1622L1784,1622L1784,1730L1731,1730L1731,1676L1676,1676L1676,1730L1622,1730L1622,1784L1460,1784L1460,1731L1514,1731L1514,1676L1460,1676L1460,1730L1406,1730L1406,1676L1351,1676L1351,1784L1298,1784ZM1514,1514L1514,1351L1433,1351L1352,1352L1351,1433L1351,1514L1514,1514ZM1622,1460L1622,1406L1568,1406L1568,1460L1622,1460ZM650,1622L650,1514L703,1514L703,1622L650,1622ZM974,1622L974,1569L1027,1569L1027,1622L974,1622ZM1028,1568L1028,1460L1082,1460L1082,1406L1028,1406L1028,1352L1001,1351L974,1351L974,1298L1028,1298L1028,1244L1082,1244L1082,1190L1136,1190L1136,1244L1189,1244L1189,1298L1136,1298L1136,1352L1244,1352L1244,1406L1189,1406L1189,1513L1082,1513L1082,1568L1028,1568ZM1136,1298L1136,1244L1082,1244L1082,1298L1136,1298ZM650,1460L650,1244L703,1244L757,1245L757,1298L703,1298L703,1352L757,1352L757,1460L650,1460ZM974,1460L974,1406L1027,1406L1027,1460L974,1460ZM812,1406L812,1352L919,1352L919,1406L812,1406ZM217,1351L217,1082L270,1082L270,1136L325,1136L325,1082L271,1082L271,1028L325,1028L325,1082L432,1082L432,1136L488,1136L488,1082L541,1082L595,1083L595,1136L541,1136L541,1190L649,1190L649,1244L541,1244L541,1298L595,1298L595,1351L488,1351L488,1298L433,1298L433,1189L379,1189L379,1298L432,1298L432,1351L379,1351L379,1298L325,1298L325,1351L217,1351ZM812,1298L812,1244L919,1244L919,1190L973,1190L973,1298L812,1298ZM1190,1244L1190,1190L1244,1190L1244,1244L1190,1244ZM1298,1244L1298,1136L1189,1136L1189,1189L1136,1189L1136,1136L1083,1136L1082,1109L1082,1082L1027,1082L1027,1136L974,1136L974,1028L1028,1028L1028,919L974,919L974,865L1190,865L1190,812L1244,812L1244,865L1460,865L1460,812L1514,812L1514,703L1569,703L1569,650L1676,650L1676,703L1730,703L1730,757L1676,757L1676,811L1568,811L1568,865L1460,865L1460,973L1406,973L1406,919L1082,919L1082,1028L1244,1028L1244,974L1298,974L1298,1082L1351,1082L1351,1244L1298,1244ZM812,1189L812,1136L865,1136L865,1189L812,1189ZM1028,1189L1028,1136L1082,1136L1082,1189L1028,1189ZM650,1136L650,1082L703,1082L703,1027L541,1027L541,974L650,974L650,919L703,919L703,811L649,811L649,865L595,865L595,811L541,811L541,757L326,757L326,704L352,703L379,703L379,650L487,650L487,703L541,703L541,650L649,650L649,703L541,703L541,757L650,757L650,703L703,703L703,595L650,595L650,541L703,541L703,595L757,595L757,488L811,488L811,649L757,649L757,703L703,703L703,757L757,757L757,919L703,919L703,974L811,974L811,1136L757,1136L757,1082L703,1082L703,1136L650,1136ZM866,1135C865,1135 865,1086 865,1027L865,919L812,919L812,812L919,812L919,703L865,703L865,757L812,757L812,650L865,650L865,488L919,488L919,432L812,432L812,379L757,379L757,487L703,487L703,432L650,432L650,325L703,325L703,379L757,379L757,271L811,271L811,325L865,325L865,379L1027,379L1027,595L1082,595L1082,650L1136,650L1136,703L1028,703L1028,650L1001,649L974,649L974,541L919,541L919,703L1027,703L1027,811L1000,811L974,812L973,838L973,865L919,865L919,919L973,919L973,1027L919,1027L919,1136L892,1136C878,1136 866,1136 866,1135ZM217,1027L217,974L270,974L270,1027L217,1027ZM1460,1027L1460,974L1513,974L1513,1027L1460,1027ZM325,919L326,866L379,865L432,865L432,919L379,919L379,973L325,973L325,919ZM488,973L488,919L541,919L541,865L568,865L595,866L595,919L541,919L541,973L488,973ZM1514,973L1514,919L1568,919L1568,973L1514,973ZM1622,973L1622,919L1569,919L1569,865L1622,865L1622,919L1676,919L1676,865L1730,865L1730,919L1676,919L1676,973L1622,973ZM217,865L217,812L325,812L325,865L217,865ZM433,865L433,812L487,812L487,865L433,865ZM1731,865L1731,812L1784,812L1784,865L1731,865ZM1082,811L1082,757L1136,757L1136,811L1082,811ZM1352,811L1352,757L1406,757L1406,730L1407,704L1433,703L1460,703L1460,811L1352,811ZM1298,757L1298,541L1351,541L1351,757L1298,757ZM1190,703L1190,650L1244,650L1244,703L1190,703ZM217,595L217,217L595,217L595,595L217,595ZM541,541L541,270L406,270L271,271L270,406L270,541L541,541ZM1083,594C1082,594 1082,582 1082,567L1082,541L1109,541L1136,542L1136,595L1109,595C1095,595 1083,595 1083,594ZM1190,595L1190,541L1136,541L1136,379L1298,379L1298,271L1351,271L1351,432L1298,432L1298,487L1244,487L1244,595L1190,595ZM1407,594C1406,594 1406,509 1406,405L1406,217L1784,217L1784,595L1596,595C1492,595 1407,595 1407,594ZM1731,541L1731,271L1595,270L1460,270L1460,541L1731,541ZM1028,379L1028,325L1082,325L1082,271L1136,271L1136,379L1028,379ZM919,325L919,271L974,271L974,217L1082,217L1082,270L1027,270L1027,325L919,325ZM1190,325L1190,271L1163,270L1136,270L1136,217L1298,217L1298,270L1244,270L1244,325L1190,325ZM865,270L865,217L919,217L919,270L865,270ZM326,1675C325,1675 325,1639 325,1594L325,1514L487,1514L487,1676L407,1676C362,1676 326,1676 326,1675ZM1406,1459L1406,1432L1407,1407L1460,1407L1460,1460L1407,1460L1406,1459ZM325,406L326,326L406,325L487,325L487,487L325,487L325,406ZM1514,487L1514,325L1595,325L1676,326L1676,487L1514,487Z" style="fill-rule:nonzero;"/>
    </g>
    <g transform="matrix(1.65822,0,0,1.65822,-64.5574,-64.5574)">
        <path d="M217,1784L217,1406L406,1406L595,1407L595,1784L217,1784ZM541,1731L541,1460L270,1460L270,1595C270,1669 270,1730 271,1730C271,1731 332,1731 406,1731L541,1731ZM703,1784L703,1731L757,1731L757,1784L703,1784ZM812,1784L812,1730L757,1730L757,1514L919,1514L919,1460L973,1460L973,1568L919,1568L919,1676L973,1676L973,1730L919,1730L919,1676L866,1676L865,1622L865,1568L811,1568L811,1676L865,1676L865,1784L812,1784ZM1082,1784L1082,1676L1028,1676L1028,1622L1189,1622L1189,1676L1136,1676L1136,1731L1244,1731L1244,1784L1082,1784ZM1298,1784L1298,1730L1244,1730L1244,1676L1298,1676L1298,1622L1406,1622L1406,1676L1460,1676L1460,1568L1244,1568L1244,1487L1245,1407L1271,1406L1298,1406L1298,1298L1352,1298L1352,1244L1460,1244L1460,1189L1406,1189L1406,1136L1407,1083L1433,1082L1460,1082L1460,1136L1569,1136L1569,1082L1514,1082L1514,1028L1569,1028L1569,974L1622,974L1622,1028L1731,1028L1731,919L1784,919L1784,1136L1731,1136L1731,1082L1622,1082L1622,1136L1676,1136L1676,1189L1595,1189L1514,1190L1513,1217L1513,1244L1460,1244L1460,1298L1514,1298L1514,1244L1568,1244L1568,1352L1622,1352L1622,1244L1649,1244L1676,1245L1676,1298L1731,1298L1731,1190L1784,1190L1784,1351L1676,1351L1676,1460L1622,1460L1622,1513L1595,1513L1569,1514L1568,1541L1568,1568L1541,1568L1514,1569L1513,1595L1513,1622L1568,1622L1568,1676L1676,1676L1676,1622L1569,1622L1569,1569L1730,1569L1730,1622L1784,1622L1784,1730L1731,1730L1731,1676L1676,1676L1676,1730L1622,1730L1622,1784L1460,1784L1460,1731L1514,1731L1514,1676L1460,1676L1460,1730L1406,1730L1406,1676L1351,1676L1351,1784L1298,1784ZM1514,1514L1514,1351L1433,1351L1352,1352L1351,1433L1351,1514L1514,1514ZM1622,1460L1622,1406L1568,1406L1568,1460L1622,1460ZM650,1622L650,1514L703,1514L703,1622L650,1622ZM974,1622L974,1569L1027,1569L1027,1622L974,1622ZM1028,1568L1028,1460L1082,1460L1082,1406L1028,1406L1028,1352L1001,1351L974,1351L974,1298L1028,1298L1028,1244L1082,1244L1082,1190L1136,1190L1136,1244L1189,1244L1189,1298L1136,1298L1136,1352L1244,1352L1244,1406L1189,1406L1189,1513L1082,1513L1082,1568L1028,1568ZM1136,1298L1136,1244L1082,1244L1082,1298L1136,1298ZM650,1460L650,1244L703,1244L757,1245L757,1298L703,1298L703,1352L757,1352L757,1460L650,1460ZM974,1460L974,1406L1027,1406L1027,1460L974,1460ZM812,1406L812,1352L919,1352L919,1406L812,1406ZM217,1351L217,1082L270,1082L270,1136L325,1136L325,1082L271,1082L271,1028L325,1028L325,1082L432,1082L432,1136L488,1136L488,1082L541,1082L595,1083L595,1136L541,1136L541,1190L649,1190L649,1244L541,1244L541,1298L595,1298L595,1351L488,1351L488,1298L433,1298L433,1189L379,1189L379,1298L432,1298L432,1351L379,1351L379,1298L325,1298L325,1351L217,1351ZM812,1298L812,1244L919,1244L919,1190L973,1190L973,1298L812,1298ZM1190,1244L1190,1190L1244,1190L1244,1244L1190,1244ZM1298,1244L1298,1136L1189,1136L1189,1189L1136,1189L1136,1136L1083,1136L1082,1109L1082,1082L1027,1082L1027,1136L974,1136L974,1028L1028,1028L1028,919L974,919L974,865L1190,865L1190,812L1244,812L1244,865L1460,865L1460,812L1514,812L1514,703L1569,703L1569,650L1676,650L1676,703L1730,703L1730,757L1676,757L1676,811L1568,811L1568,865L1460,865L1460,973L1406,973L1406,919L1082,919L1082,1028L1244,1028L1244,974L1298,974L1298,1082L1351,1082L1351,1244L1298,1244ZM812,1189L812,1136L865,1136L865,1189L812,1189ZM1028,1189L1028,1136L1082,1136L1082,1189L1028,1189ZM650,1136L650,1082L703,1082L703,1027L541,1027L541,974L650,974L650,919L703,919L703,811L649,811L649,865L595,865L595,811L541,811L541,757L326,757L326,704L352,703L379,703L379,650L487,650L487,703L541,703L541,650L649,650L649,703L541,703L541,757L650,757L650,703L703,703L703,595L650,595L650,541L703,541L703,595L757,595L757,488L811,488L811,649L757,649L757,703L703,703L703,757L757,757L757,919L703,919L703,974L811,974L811,1136L757,1136L757,1082L703,1082L703,1136L650,1136ZM866,1135C865,1135 865,1086 865,1027L865,919L812,919L812,812L919,812L919,703L865,703L865,757L812,757L812,650L865,650L865,488L919,488L919,432L812,432L812,379L757,379L757,487L703,487L703,432L650,432L650,325L703,325L703,379L757,379L757,271L811,271L811,325L865,325L865,379L1027,379L1027,595L1082,595L1082,650L1136,650L1136,703L1028,703L1028,650L1001,649L974,649L974,541L919,541L919,703L1027,703L1027,811L1000,811L974,812L973,838L973,865L919,865L919,919L973,919L973,1027L919,1027L919,1136L892,1136C878,1136 866,1136 866,1135ZM217,1027L217,974L270,974L270,1027L217,1027ZM1460,1027L1460,974L1513,974L1513,1027L1460,1027ZM325,919L326,866L379,865L432,865L432,919L379,919L379,973L325,973L325,919ZM488,973L488,919L541,919L541,865L568,865L595,866L595,919L541,919L541,973L488,973ZM1514,973L1514,919L1568,919L1568,973L1514,973ZM1622,973L1622,919L1569,919L1569,865L1622,865L1622,919L1676,919L1676,865L1730,865L1730,919L1676,919L1676,973L1622,973ZM217,865L217,812L325,812L325,865L217,865ZM433,865L433,812L487,812L487,865L433,865ZM1731,865L1731,812L1784,812L1784,865L1731,865ZM1082,811L1082,757L1136,757L1136,811L1082,811ZM1352,811L1352,757L1406,757L1406,730L1407,704L1433,703L1460,703L1460,811L1352,811ZM1298,757L1298,541L1351,541L1351,757L1298,757ZM1190,703L1190,650L1244,650L1244,703L1190,703ZM217,595L217,217L595,217L595,595L217,595ZM541,541L541,270L406,270L271,271L270,406L270,541L541,541ZM1083,594C1082,594 1082,582 1082,567L1082,541L1109,541L1136,542L1136,595L1109,595C1095,595 1083,595 1083,594ZM1190,595L1190,541L1136,541L1136,379L1298,379L1298,271L1351,271L1351,432L1298,432L1298,487L1244,487L1244,595L1190,595ZM1407,594C1406,594 1406,509 1406,405L1406,217L1784,217L1784,595L1596,595C1492,595 1407,595 1407,594ZM1731,541L1731,271L1595,270L1460,270L1460,541L1731,541ZM1028,379L1028,325L1082,325L1082,271L1136,271L1136,379L1028,379ZM919,325L919,271L974,271L974,217L1082,217L1082,270L1027,270L1027,325L919,325ZM1190,325L1190,271L1163,270L1136,270L1136,217L1298,217L1298,270L1244,270L1244,325L1190,325ZM865,270L865,217L919,217L919,270L865,270ZM326,1675C325,1675 325,1639 325,1594L325,1514L487,1514L487,1676L407,1676C362,1676 326,1676 326,1675ZM1406,1459L1406,1432L1407,1407L1460,1407L1460,1460L1407,1460L1406,1459ZM325,406L326,326L406,325L487,325L487,487L325,487L325,406ZM1514,487L1514,325L1595,325L1676,326L1676,487L1514,487Z" style="fill:none;fill-rule:nonzero;stroke:rgb(0,255,0);stroke-width:0.6px;stroke-linecap:butt;stroke-miterlimit:2;"/>
    </g>
</svg>
